<?xml version="1.0" standalone="no"?>
<!DOCTYPE svg PUBLIC "-//W3C//DTD SVG 20010904//EN"
 "http://www.w3.org/TR/2001/REC-SVG-20010904/DTD/svg10.dtd">
<svg version="1.0" xmlns="http://www.w3.org/2000/svg"
 width="512.000000pt" height="512.000000pt" viewBox="0 0 512.000000 512.000000"
 preserveAspectRatio="xMidYMid meet">
<metadata>
Created by potrace 1.16, written by Peter Selinger 2001-2019
</metadata>
<g transform="translate(0.000000,512.000000) scale(0.100000,-0.100000)"
fill="#000000" stroke="none">
<path d="M2295 5105 c-11 -17 -63 -29 -185 -45 -47 -6 -94 -15 -105 -19 -11
-5 -33 -14 -48 -20 -15 -6 -42 -11 -60 -11 -18 -1 -57 -10 -87 -21 -30 -11
-73 -24 -95 -29 -36 -8 -99 -35 -208 -91 -22 -10 -45 -19 -53 -19 -8 0 -32
-11 -54 -25 -22 -14 -42 -25 -46 -25 -3 0 -19 -11 -36 -25 -16 -14 -37 -25
-47 -25 -10 0 -26 -9 -36 -20 -10 -11 -23 -20 -29 -20 -6 -1 -38 -21 -71 -45
-33 -24 -85 -61 -115 -81 -58 -38 -130 -103 -130 -116 0 -5 43 -52 95 -104 61
-63 98 -109 106 -133 6 -20 15 -40 20 -45 16 -18 9 -85 -15 -138 -41 -92 -100
-129 -206 -130 -84 0 -95 7 -231 138 -74 71 -99 78 -126 37 -9 -16 -35 -48
-56 -72 -21 -25 -45 -61 -54 -80 -9 -20 -23 -43 -30 -52 -26 -30 -183 -339
-183 -358 0 -6 -11 -31 -25 -57 -14 -26 -25 -60 -25 -75 0 -15 -4 -30 -9 -33
-8 -5 -24 -63 -51 -186 -7 -30 -16 -59 -20 -65 -6 -9 -19 -90 -35 -217 -3 -26
-15 -58 -26 -71 -18 -23 -19 -42 -19 -271 0 -233 1 -248 21 -275 14 -20 24
-59 35 -142 8 -63 19 -123 24 -134 13 -30 27 -84 39 -148 6 -32 17 -72 26 -89
8 -17 15 -41 15 -52 0 -12 11 -41 25 -65 14 -23 25 -50 25 -58 0 -8 13 -40 29
-71 16 -31 41 -84 56 -117 15 -33 38 -73 51 -88 13 -16 24 -36 24 -46 0 -10 9
-26 20 -36 11 -10 20 -24 20 -32 0 -7 5 -13 10 -13 6 0 10 -7 10 -15 0 -8 8
-24 18 -36 9 -12 28 -36 42 -53 14 -17 43 -57 64 -90 43 -66 399 -426 421
-426 8 0 15 -4 15 -8 0 -4 15 -16 33 -26 17 -11 50 -35 72 -53 53 -45 54 -46
96 -66 20 -9 42 -23 49 -32 7 -8 20 -15 30 -15 9 0 37 -16 61 -35 24 -19 49
-35 56 -35 6 0 24 -6 40 -14 28 -14 109 -52 215 -100 31 -14 67 -26 80 -26 13
0 28 -4 34 -9 14 -14 114 -41 151 -41 18 0 41 -4 51 -9 48 -24 76 -31 183 -45
114 -14 159 -27 159 -46 0 -6 96 -10 250 -10 236 0 252 1 278 20 15 11 43 22
62 25 123 14 216 29 225 35 13 9 72 24 167 45 43 9 80 21 84 26 3 5 20 9 37 9
18 0 47 9 66 21 18 11 54 29 80 39 88 34 224 101 256 126 17 13 39 24 47 24 9
0 21 7 28 15 7 9 32 25 54 35 23 10 59 35 81 55 22 20 52 42 67 50 15 9 32 24
38 35 11 21 13 20 -118 155 -116 121 -112 114 -112 206 0 83 6 103 43 146 66
76 182 96 276 48 27 -13 88 -64 137 -112 128 -127 116 -121 163 -74 23 23 41
46 41 51 0 6 4 10 8 10 4 0 16 14 26 31 10 18 41 62 68 98 28 36 54 75 58 86
4 12 15 27 24 34 9 7 16 22 16 31 0 10 10 31 23 47 23 28 52 84 100 193 14 30
39 85 56 121 17 36 31 75 31 86 0 11 9 40 20 65 10 24 22 64 25 88 7 50 25
120 35 135 4 6 13 55 20 110 16 129 28 175 46 182 12 4 14 46 14 254 0 236 -1
251 -21 278 -15 20 -24 59 -35 147 -14 110 -20 138 -45 186 -5 10 -9 33 -9 51
0 37 -27 137 -41 152 -5 5 -9 20 -9 35 0 14 -11 45 -25 69 -14 23 -25 50 -25
58 0 8 -13 40 -29 71 -16 31 -41 85 -57 119 -15 35 -38 73 -51 85 -13 12 -23
32 -23 45 0 12 -9 28 -20 35 -11 7 -20 18 -20 25 0 16 -63 115 -84 132 -9 8
-26 31 -38 52 -12 22 -25 39 -30 39 -4 0 -8 6 -8 14 0 8 -15 27 -33 43 -18 16
-46 46 -62 68 -16 22 -39 48 -50 58 -11 10 -71 67 -133 125 -62 59 -118 109
-125 111 -6 2 -20 12 -31 23 -11 10 -23 18 -27 18 -4 0 -30 19 -58 43 -27 24
-70 53 -94 65 -25 12 -50 29 -57 37 -7 8 -20 15 -30 15 -9 0 -37 16 -61 35
-24 19 -48 35 -54 35 -5 0 -51 20 -102 45 -50 25 -101 45 -112 45 -11 0 -23 5
-26 10 -8 13 -72 40 -95 40 -9 0 -31 7 -48 15 -17 9 -57 20 -89 26 -32 6 -78
18 -103 26 -25 9 -100 24 -168 34 -80 11 -135 25 -158 38 -33 20 -50 21 -282
21 -206 0 -249 -2 -257 -15z m554 -249 c6 -8 25 -19 41 -26 16 -6 41 -31 56
-53 26 -38 28 -51 29 -127 0 -75 -3 -88 -22 -110 -13 -13 -23 -27 -23 -31 0
-5 -52 -59 -116 -121 -64 -62 -121 -119 -127 -126 -33 -36 -211 -212 -269
-267 -61 -56 -72 -63 -121 -69 -95 -11 -142 1 -197 51 -59 53 -75 99 -66 186
7 73 16 88 90 164 34 34 67 68 74 75 7 7 63 63 125 124 61 61 119 120 128 130
8 11 43 44 77 74 34 30 64 62 67 71 3 8 20 21 39 27 19 7 40 19 46 27 17 20
153 21 169 1z m-1195 -1078 c22 -6 45 -15 51 -20 5 -4 17 -8 28 -8 10 0 32
-14 50 -30 18 -17 40 -33 50 -36 9 -3 17 -10 17 -16 0 -6 9 -18 20 -28 10 -9
27 -39 36 -66 9 -27 21 -52 28 -56 6 -4 12 -42 14 -86 4 -72 1 -86 -28 -153
-18 -40 -42 -87 -53 -105 -31 -47 -112 -98 -210 -129 -96 -32 -93 -32 -227 17
-73 27 -146 88 -186 155 -38 66 -65 207 -46 247 6 11 16 46 23 75 11 49 21 64
91 133 49 48 87 78 101 78 12 1 38 9 57 19 41 22 125 26 184 9z m659 -789 c63
-22 84 -36 126 -83 14 -16 37 -39 49 -50 26 -23 221 -218 238 -238 6 -7 33
-34 60 -60 75 -70 157 -161 173 -188 9 -15 14 -52 13 -97 0 -64 -4 -77 -32
-118 -18 -26 -39 -49 -48 -52 -10 -4 -34 -18 -54 -31 -32 -21 -46 -24 -99 -20
-33 2 -64 9 -67 15 -4 6 -20 17 -37 26 -16 8 -156 143 -311 299 -300 302 -294
294 -294 397 0 102 43 165 136 200 64 25 77 25 147 0z m1214 -1080 c27 -6 64
-19 83 -28 35 -16 140 -116 140 -133 0 -6 10 -24 23 -41 20 -29 22 -43 21
-152 0 -111 -2 -124 -27 -171 -30 -55 -110 -142 -148 -161 -97 -46 -122 -53
-188 -53 -73 0 -90 5 -179 49 -73 35 -116 79 -162 161 -23 41 -25 55 -25 170
0 122 1 126 31 175 33 53 95 125 108 125 5 0 21 11 38 25 16 14 42 25 56 26
15 0 36 4 47 9 29 12 127 12 182 -1z m-698 -780 c17 -6 31 -14 31 -18 0 -3 16
-15 35 -25 19 -11 35 -24 35 -30 0 -6 9 -22 20 -36 16 -20 20 -41 20 -102 0
-43 -4 -78 -8 -78 -5 0 -15 -12 -23 -27 -12 -25 -523 -543 -578 -586 -34 -27
-67 -37 -126 -37 -61 0 -101 12 -124 39 -9 9 -24 20 -34 24 -10 4 -25 24 -34
44 -20 47 -22 177 -3 213 13 26 76 94 144 158 21 21 57 57 80 81 23 24 54 56
70 70 16 14 41 39 55 54 102 112 214 215 261 240 59 29 123 35 179 16z"/>
</g>
</svg>
