<?xml version="1.0" standalone="no"?>
<!DOCTYPE svg PUBLIC "-//W3C//DTD SVG 20010904//EN"
 "http://www.w3.org/TR/2001/REC-SVG-20010904/DTD/svg10.dtd">
<svg version="1.0" xmlns="http://www.w3.org/2000/svg"
 width="288.000000pt" height="288.000000pt" viewBox="0 0 288.000000 288.000000"
 preserveAspectRatio="xMidYMid meet">
<metadata>
Created by potrace 1.10, written by Peter Selinger 2001-2011
</metadata>
<g transform="translate(0.000000,288.000000) scale(0.100000,-0.100000)"
fill="#056fff" stroke="none">
<path d="M1359 2864 c-14 -7 -68 -18 -120 -23 -128 -14 -237 -42 -336 -87 -28
-13 -57 -24 -63 -24 -7 0 -32 -13 -57 -30 -24 -16 -49 -30 -55 -30 -5 0 -27
-13 -48 -30 -21 -16 -42 -30 -46 -30 -5 0 -23 -13 -41 -28 -17 -15 -41 -35
-52 -44 -12 -10 -21 -22 -21 -27 0 -4 20 -28 44 -52 83 -84 96 -145 46 -209
-21 -26 -43 -41 -75 -50 -58 -16 -86 -5 -155 61 -28 26 -56 46 -63 43 -6 -2
-23 -21 -37 -42 -14 -20 -27 -39 -30 -42 -3 -3 -14 -23 -25 -45 -11 -22 -22
-42 -25 -45 -3 -3 -11 -16 -18 -30 -6 -14 -16 -32 -21 -40 -5 -8 -14 -28 -21
-45 -7 -16 -18 -43 -25 -60 -20 -47 -45 -132 -45 -155 0 -11 -6 -33 -14 -48
-7 -15 -16 -64 -19 -109 -3 -45 -12 -96 -21 -114 -20 -40 -21 -132 -2 -162 9
-13 18 -62 22 -117 4 -52 13 -107 20 -122 8 -15 14 -40 14 -55 0 -30 35 -131
51 -147 5 -6 9 -20 9 -32 0 -13 5 -26 10 -29 6 -3 10 -13 10 -22 0 -8 13 -35
29 -58 16 -24 37 -61 47 -82 10 -21 24 -44 31 -51 7 -7 13 -16 13 -20 0 -4 13
-22 28 -40 15 -17 41 -48 57 -69 38 -45 121 -129 169 -168 20 -16 51 -42 68
-57 18 -15 36 -28 40 -28 4 0 13 -6 20 -13 7 -7 33 -23 58 -36 25 -12 59 -31
75 -42 17 -10 37 -21 45 -25 8 -3 23 -10 32 -15 10 -5 23 -9 28 -9 6 0 31 -9
54 -20 24 -11 66 -24 92 -31 27 -6 69 -17 94 -24 25 -7 83 -16 129 -20 46 -3
96 -12 112 -20 37 -19 108 -19 147 0 17 9 73 19 124 24 51 4 103 13 115 19 12
7 31 12 43 12 35 0 135 34 212 71 10 5 22 9 27 9 15 0 223 126 249 150 27 25
27 25 -55 108 -52 51 -53 54 -53 110 1 81 47 132 122 132 55 0 79 -12 144 -75
54 -51 61 -55 81 -44 13 7 23 16 23 20 0 4 6 14 14 21 21 22 106 148 106 159
0 5 14 28 30 51 17 22 30 49 30 59 0 10 5 21 10 24 6 3 10 17 10 30 0 13 4 26
9 29 11 7 51 128 51 154 0 11 6 35 14 53 7 19 16 74 19 123 4 54 12 97 22 112
16 25 21 114 6 130 -13 13 -31 117 -31 178 -1 28 -7 62 -15 76 -8 14 -14 39
-15 56 0 32 -63 207 -91 254 -5 8 -14 27 -20 43 -6 15 -14 27 -17 27 -4 0 -16
20 -27 45 -11 25 -23 45 -27 45 -3 0 -9 8 -12 18 -4 9 -19 32 -34 50 -15 17
-40 49 -57 69 -38 47 -132 141 -173 173 -18 14 -44 35 -59 48 -16 13 -55 39
-88 58 -33 20 -67 39 -75 44 -81 49 -256 120 -320 131 -25 4 -63 12 -85 18
-22 5 -80 14 -130 19 -49 5 -91 15 -93 21 -5 15 -111 12 -143 -5z m259 -133
c21 -11 43 -31 50 -46 18 -39 15 -116 -6 -145 -9 -14 -86 -94 -171 -177 -136
-135 -159 -153 -199 -162 -53 -11 -84 -2 -124 37 -25 23 -28 33 -28 89 l0 64
164 164 c90 91 177 172 193 180 38 20 76 19 121 -4z m-651 -608 c50 -23 94
-67 122 -123 19 -36 22 -55 18 -96 -6 -58 -56 -149 -88 -159 -10 -4 -19 -11
-19 -16 0 -5 -8 -9 -17 -9 -10 0 -27 -7 -37 -15 -72 -55 -245 39 -273 148 -16
60 -16 82 1 132 43 122 184 188 293 138z m354 -440 c19 -9 107 -90 197 -179
l162 -163 0 -52 c0 -63 -23 -105 -72 -130 -46 -24 -81 -24 -116 -2 -15 10
-100 91 -189 180 -172 172 -170 168 -164 258 6 84 99 129 182 88z m679 -605
c56 -21 88 -45 115 -88 21 -34 25 -51 25 -120 0 -73 -3 -85 -27 -118 -36 -47
-48 -58 -102 -83 -93 -44 -216 -4 -271 88 -33 55 -33 174 -1 227 28 45 72 79
131 99 49 17 75 16 130 -5z m-385 -448 c70 -43 87 -124 40 -186 -26 -34 -315
-321 -337 -336 -7 -4 -36 -8 -65 -8 -65 0 -102 29 -121 92 -11 38 -11 49 4 83
19 46 300 336 349 360 42 20 92 19 130 -5z"/>
</g>
</svg>
